<svg width="150" height="30" viewBox="0 0 150 30" fill="none" xmlns="http://www.w3.org/2000/svg">
<path d="M12.3422 29.7926H6.94922L10.9388 6.83282H16.316L12.3422 29.7926Z" fill="#05FF00"/>
<path d="M34.8289 29.7926H29.6094L24.1217 15.3008L21.5987 29.7926H16.2057L20.1795 6.83282H25.4463L30.9182 21.3246L33.4255 6.83282H38.8185L34.8289 29.7926Z" fill="#05FF00"/>
<path d="M54.0199 20.6465H45.3627L43.77 29.7926H38.377L42.3508 6.83282H57.2841L56.5429 11.1062H47.0184L46.1038 16.3889H54.761L54.0199 20.6465Z" fill="#05FF00"/>
<path d="M61.794 25.5349H71.1451L70.4039 29.7926H55.6598L59.6337 6.83282H65.0424L61.794 25.5349Z" fill="#05FF00"/>
<path d="M86.6145 25.5034H79.2819L77.2477 29.7926H71.3028L83.4607 6.83282H88.5383L92.7802 29.7926H87.1664L86.6145 25.5034ZM81.3003 21.23H86.0626L85.0534 13.3139L81.3003 21.23Z" fill="#05FF00"/>
<path d="M113.501 11.1062H106.815L103.582 29.7926H98.1732L101.422 11.1062H94.846L95.6029 6.83282H114.242L113.501 11.1062Z" fill="#05FF00"/>
<path d="M128.182 20.0631H119.745L118.783 25.5349H128.765L128.024 29.7926H112.649L116.623 6.83282H132.029L131.288 11.1062H121.291L120.439 15.9473H128.891L128.182 20.0631Z" fill="#05FF00"/>
<path d="M130.342 29.7926L134.316 6.83282L141.065 6.84859C143.052 6.84859 144.787 7.37423 146.269 8.4255C147.751 9.46626 148.802 10.8907 149.423 12.6989C149.959 14.2863 150.122 15.9999 149.912 17.8396L149.801 18.8015C149.517 20.862 148.834 22.728 147.751 24.3996C146.668 26.0711 145.275 27.3852 143.572 28.3418C141.869 29.288 140.03 29.7715 138.053 29.7926H130.342ZM138.984 11.1062L136.476 25.5349L138.053 25.5507C139.903 25.5507 141.386 24.8358 142.5 23.4061C143.625 21.9764 144.292 19.7897 144.503 16.8462L144.534 16.3258C144.608 14.6438 144.345 13.3665 143.746 12.4939C143.147 11.6214 142.248 11.1641 141.049 11.122L138.984 11.1062Z" fill="#05FF00"/>
<path d="M9.23677 26.6873H3.84375L7.83332 3.72754H13.2106L9.23677 26.6873Z" fill="#06B503"/>
<path d="M31.7234 26.6873H26.5039L21.0163 12.1955L18.4932 26.6873H13.1002L17.074 3.72754H22.3409L27.8127 18.2193L30.32 3.72754H35.713L31.7234 26.6873Z" fill="#06B503"/>
<path d="M50.9144 17.5412H42.2572L40.6645 26.6873H35.2715L39.2453 3.72754H54.1786L53.4374 8.00095H43.9129L42.9983 13.2836H51.6555L50.9144 17.5412Z" fill="#06B503"/>
<path d="M58.6885 22.4296H68.0396L67.2985 26.6873H52.5544L56.5282 3.72754H61.937L58.6885 22.4296Z" fill="#06B503"/>
<path d="M83.509 22.3981H76.1764L74.1422 26.6873H68.1973L80.3552 3.72754H85.4329L89.6747 26.6873H84.061L83.509 22.3981ZM78.1949 18.1247H82.9571L81.9479 10.2086L78.1949 18.1247Z" fill="#06B503"/>
<path d="M110.395 8.00095H103.709L100.477 26.6873H95.0678L98.3162 8.00095H91.7405L92.4974 3.72754H111.136L110.395 8.00095Z" fill="#06B503"/>
<path d="M125.076 16.9578H116.64L115.678 22.4296H125.66L124.919 26.6873H109.544L113.518 3.72754H128.924L128.183 8.00095H118.185L117.334 12.8421H125.786L125.076 16.9578Z" fill="#06B503"/>
<path d="M127.237 26.6873L131.21 3.72754L137.96 3.74331C139.947 3.74331 141.681 4.26894 143.163 5.32021C144.646 6.36097 145.697 7.78544 146.317 9.59363C146.853 11.181 147.016 12.8946 146.806 14.7343L146.696 15.6963C146.412 17.7567 145.729 19.6228 144.646 21.2943C143.563 22.9658 142.17 24.2799 140.467 25.2365C138.764 26.1827 136.924 26.6663 134.948 26.6873H127.237ZM135.878 8.00095L133.371 22.4296L134.948 22.4454C136.798 22.4454 138.28 21.7305 139.395 20.3008C140.519 18.8711 141.187 16.6844 141.397 13.7409L141.429 13.2205C141.502 11.5385 141.24 10.2612 140.64 9.38863C140.041 8.51608 139.142 8.05877 137.944 8.01672L135.878 8.00095Z" fill="#06B503"/>
<path d="M6.1313 23.582H0.738281L4.72785 0.622253H10.1051L6.1313 23.582Z" fill="white"/>
<path d="M28.618 23.582H23.3984L17.9108 9.09024L15.3877 23.582H9.99472L13.9685 0.622253H19.2354L24.7073 15.114L27.2145 0.622253H32.6076L28.618 23.582Z" fill="white"/>
<path d="M47.8089 14.4359H39.1517L37.559 23.582H32.166L36.1398 0.622253H51.0731L50.332 4.89567H40.8075L39.8929 10.1783H48.5501L47.8089 14.4359Z" fill="white"/>
<path d="M55.5831 19.3244H64.9341L64.193 23.582H49.4489L53.4227 0.622253H58.8315L55.5831 19.3244Z" fill="white"/>
<path d="M80.4036 19.2928H73.071L71.0368 23.582H65.0918L77.2498 0.622253H82.3274L86.5693 23.582H80.9555L80.4036 19.2928ZM75.0894 15.0194H79.8517L78.8424 7.10334L75.0894 15.0194Z" fill="white"/>
<path d="M107.29 4.89567H100.604L97.3711 23.582H91.9623L95.2107 4.89567H88.635L89.3919 0.622253H108.031L107.29 4.89567Z" fill="white"/>
<path d="M121.971 13.8525H113.534L112.572 19.3244H122.554L121.813 23.582H106.438L110.412 0.622253H125.818L125.077 4.89567H115.08L114.228 9.73677H122.68L121.971 13.8525Z" fill="white"/>
<path d="M124.131 23.582L128.105 0.622253L134.854 0.638022C136.841 0.638022 138.576 1.16366 140.058 2.21493C141.54 3.25569 142.591 4.68016 143.212 6.48834C143.748 8.07576 143.911 9.78933 143.701 11.6291L143.59 12.591C143.306 14.6515 142.623 16.5175 141.54 18.189C140.457 19.8605 139.064 21.1746 137.361 22.1313C135.658 23.0774 133.819 23.561 131.842 23.582H124.131ZM132.773 4.89567L130.265 19.3244L131.842 19.3401C133.692 19.3401 135.175 18.6253 136.289 17.1955C137.414 15.7658 138.082 13.5792 138.292 10.6356L138.323 10.1152C138.397 8.43319 138.134 7.1559 137.535 6.28335C136.936 5.41079 136.037 4.95349 134.838 4.91144L132.773 4.89567Z" fill="white"/>
<path fill-rule="evenodd" clip-rule="evenodd" d="M6.6541 24.2031H0L4.20541 0.00122248H10.8429L6.6541 24.2031ZM4.72785 0.622281H10.1051L6.1313 23.582H0.738282L4.72785 0.622281ZM29.1404 24.2031H22.9695L18.1335 11.4321L15.91 24.2031H9.25694L13.4457 0.00122248H19.6647L24.4836 12.7636L26.6917 0.00122248H33.3458L29.1404 24.2031ZM24.7073 15.114L19.2354 0.622281H13.9685L9.99472 23.582H15.3877L17.9108 9.09027L23.3984 23.582H28.618L32.6076 0.622281H27.2145L24.7073 15.114ZM48.3312 15.057H39.674L38.0813 24.2031H31.4282L35.617 0.00122248H51.8112L50.8546 5.51675H41.3302L40.6307 9.55727H49.2886L48.3312 15.057ZM39.8929 10.1783L40.8075 4.8957H50.332L51.0731 0.622281H36.1398L32.166 23.582H37.559L39.1517 14.436H47.8089L48.5501 10.1783H39.8929ZM55.5831 19.3244H64.9341L64.193 23.582H49.4489L53.4227 0.622281H58.8315L55.5831 19.3244ZM56.3213 18.7033L59.5697 0.00122248H52.8999L48.7111 24.2031H71.4296L73.4638 19.9139H79.8573L80.4092 24.2031H87.3156L82.8442 0.00122248H76.8759L65.0361 22.3602L65.6726 18.7033H56.3213ZM80.4036 19.2928L80.9555 23.582H86.5693L82.3274 0.622281H77.2498L65.0918 23.582H71.0368L73.071 19.2928H80.4036ZM79.8517 15.0194L78.8424 7.10336L75.0894 15.0194H79.8517ZM76.0712 14.3984H79.1464L78.4947 9.28659L76.0712 14.3984ZM107.812 5.51675H101.127L97.8939 24.2031H91.224L94.4724 5.51675H87.8943L88.8712 0.00122248H108.769L107.812 5.51675ZM95.2107 4.8957L91.9623 23.582H97.3711L100.604 4.8957H107.29L108.031 0.622281H89.3919L88.635 4.8957H95.2107ZM122.494 14.4736H114.056L113.312 18.7033H123.293L122.335 24.2031H105.701L109.889 0.00122248H126.557L125.6 5.51675H115.601L114.968 9.11574H123.418L122.494 14.4736ZM114.228 9.7368L115.08 4.8957H125.077L125.818 0.622281H110.412L106.438 23.582H121.813L122.554 19.3244H112.572L113.534 13.8525H121.971L122.68 9.7368H114.228ZM123.393 24.2031L127.582 0L134.854 0.0169915C134.854 0.0169915 134.855 0.0169915 134.855 0.0169915C136.957 0.0171153 138.819 0.575375 140.416 1.70717C142.011 2.82756 143.139 4.36224 143.799 6.28686L143.8 6.28964C144.368 7.97235 144.537 9.77875 144.318 11.6996L144.206 12.6688L144.205 12.6758C143.91 14.8223 143.196 16.7754 142.061 18.5267C140.925 20.281 139.458 21.6658 137.666 22.6728L137.663 22.6742C135.868 23.6712 133.927 24.1809 131.849 24.2031L131.842 24.2031L123.393 24.2031ZM140.058 2.21496C138.576 1.16369 136.841 0.63805 134.854 0.63805L128.105 0.622281L124.131 23.582H131.842C133.819 23.561 135.658 23.0774 137.361 22.1313C139.064 21.1746 140.457 19.8605 141.54 18.189C142.623 16.5175 143.306 14.6515 143.59 12.591L143.701 11.6291C143.911 9.78936 143.748 8.07579 143.212 6.48837C142.591 4.68019 141.54 3.25571 140.058 2.21496ZM135.799 16.8138L135.801 16.8115C136.814 15.5235 137.465 13.483 137.672 10.5951C137.672 10.5939 137.672 10.5926 137.672 10.5914L137.703 10.0881C137.703 10.0863 137.703 10.0845 137.703 10.0827C137.773 8.46441 137.512 7.34711 137.023 6.63496C136.552 5.94983 135.852 5.57036 134.825 5.53244L133.294 5.52076L131.002 18.7107L131.842 18.7191C131.843 18.7191 131.844 18.7191 131.845 18.7191C133.507 18.7183 134.806 18.0881 135.799 16.8138ZM131.842 19.3402L130.265 19.3244L132.773 4.8957L134.838 4.91147C136.037 4.95352 136.936 5.41082 137.535 6.28337C138.134 7.15593 138.397 8.43322 138.323 10.1153L138.292 10.6356C138.082 13.5792 137.414 15.7658 136.289 17.1956C135.175 18.6253 133.692 19.3402 131.842 19.3402Z" fill="#06B503"/>
</svg>
